<svg fill="none" height="24" viewBox="0 0 24 24" width="24" xmlns="http://www.w3.org/2000/svg"><path d="m3.35288 8.95043c.65149-2.77742 2.82013-4.94606 5.59755-5.59756 2.00587-.4705 4.09327-.4705 6.09917 0 2.7774.6515 4.946 2.82014 5.5975 5.59756.4705 2.00587.4705 4.09327 0 6.09917-.6515 2.7774-2.8201 4.946-5.5975 5.5975-2.0059.4705-4.0933.4705-6.09916 0-2.77743-.6515-4.94607-2.8201-5.59756-5.5975-.47051-2.0059-.47051-4.0933 0-6.09917z" stroke="#0095ff" stroke-width="1.5"/><path d="m3.35288 8.95043c-.47051 2.00587-.47051 4.09327 0 6.09917.65149 2.7774 2.82013 4.946 5.59756 5.5975 2.00586.4705 4.09326.4705 6.09916 0 2.7774-.6515 4.946-2.8201 5.5975-5.5975.4705-2.0059.4705-4.0933 0-6.09917-.6515-2.77742-2.8201-4.94606-5.5975-5.59756" stroke="#363853" stroke-linecap="round" stroke-width="1.5"/><path d="m7.84912 8.86907c-.2929-.29289-.76777-.29289-1.06066 0-.2929.2929-.2929.76777 0 1.06066zm.50994 1.57063-.53033.5303c.14065.1407.33142.2197.53033.2197s.38968-.079.53033-.2197zm2.61084-1.55024c.2929-.29289.2929-.76777 0-1.06066s-.7677-.29289-1.06062 0zm2.0704.28008c-.4142 0-.75.33579-.75.75 0 .41426.3358.74996.75.74996zm3.6409 1.49996c.4143 0 .75-.3357.75-.74996 0-.41421-.3357-.75-.75-.75zm-8.83208 3.4009c-.2929-.2929-.76777-.2929-1.06066 0-.2929.2929-.2929.7678 0 1.0607zm.50994 1.5706-.53033.5304c.29289.2929.76777.2929 1.06066 0zm2.61084-1.5502c.2929-.2929.2929-.7677 0-1.0606s-.7677-.2929-1.06062 0zm2.0704.2801c-.4142 0-.75.3358-.75.75s.3358.75.75.75zm3.6409 1.5c.4143 0 .75-.3358.75-.75s-.3357-.75-.75-.75zm-9.89274-5.94117 1.04027 1.04027 1.06066-1.06065-1.04027-1.04028zm2.10093 1.04027 2.08051-2.08054-1.06062-1.06066-2.08055 2.08055zm4.15091-.3005h3.6409v-1.49996h-3.6409zm-6.25184 4.4616 1.04027 1.0403 1.06066-1.0607-1.04027-1.0403zm2.10093 1.0403 2.08051-2.0806-1.06062-1.0606-2.08055 2.0805zm4.15091-.3005h3.6409v-1.5h-3.6409z" fill="#0095ff"/></svg>